<?xml version="1.0" standalone="no"?>
<!DOCTYPE svg PUBLIC "-//W3C//DTD SVG 20010904//EN"
 "http://www.w3.org/TR/2001/REC-SVG-20010904/DTD/svg10.dtd">
<svg version="1.0" xmlns="http://www.w3.org/2000/svg"
 width="512.000000pt" height="512.000000pt" viewBox="0 0 512.000000 512.000000"
 preserveAspectRatio="xMidYMid meet">
<metadata>
Created by potrace 1.14, written by Peter Selinger 2001-2017
</metadata>
<g transform="translate(0.000000,512.000000) scale(0.100000,-0.100000)"
fill="#000000" stroke="none">
<path d="M648 5064 c-62 -33 -58 130 -58 -2198 0 -1932 1 -2128 16 -2159 16
-34 57 -57 102 -57 l22 0 0 -246 c0 -193 -3 -244 -12 -238 -7 3 5 -9 27 -27
22 -19 43 -33 48 -31 5 1 6 -2 2 -8 -3 -6 -10 -8 -14 -6 -3 3 -7 -4 -7 -15 0
-10 4 -19 8 -19 4 0 8 7 8 15 0 8 4 15 9 15 11 0 32 -25 26 -32 -3 -2 2 -5 10
-5 10 0 12 4 6 10 -14 14 -2 37 16 30 9 -4 14 -2 11 3 -4 5 5 10 18 10 14 1
23 -3 21 -9 -2 -6 -13 -11 -25 -12 -23 -2 -44 -15 -23 -15 7 0 9 -5 5 -11 -4
-8 -1 -8 12 -2 27 14 80 10 76 -6 -1 -7 2 -10 8 -6 8 5 8 11 1 19 -6 7 -7 16
-3 20 4 4 0 6 -8 4 -8 -2 -18 -7 -22 -13 -4 -5 -11 -6 -15 -1 -4 5 -2 11 5 13
6 3 10 8 8 12 -6 9 55 8 71 -2 6 -4 14 -3 18 3 11 18 24 0 19 -28 -3 -22 -2
-24 6 -10 6 9 17 15 25 12 18 -7 20 12 3 22 -6 4 -8 3 -5 -3 3 -5 0 -10 -7
-10 -8 0 -12 6 -9 13 5 14 29 14 51 1 6 -5 12 -4 12 1 0 5 24 8 54 8 30 -1 52
-4 50 -8 -3 -4 5 -6 16 -5 11 1 20 4 20 7 0 4 20 6 44 6 24 -1 42 -4 39 -8 -2
-5 1 -8 7 -8 6 0 8 -6 4 -12 -4 -8 -3 -10 2 -5 5 5 9 14 9 20 0 14 104 18 122
5 6 -5 14 -5 18 2 11 18 24 1 19 -28 -3 -22 -2 -24 6 -10 6 9 17 15 25 12 18
-7 20 12 3 22 -6 4 -8 3 -5 -3 3 -5 0 -10 -7 -10 -8 0 -12 6 -9 13 5 14 29 14
51 1 6 -5 12 -4 12 1 0 5 24 8 54 8 30 -1 52 -4 50 -8 -3 -4 5 -6 16 -5 11 1
20 4 20 7 0 4 20 6 44 6 24 -1 42 -4 39 -8 -2 -5 1 -8 7 -8 6 0 8 -6 4 -12 -4
-8 -3 -10 2 -5 5 5 9 14 9 20 0 14 104 18 122 5 6 -5 14 -5 18 2 11 18 24 1
19 -28 -3 -22 -2 -24 6 -10 6 9 17 15 25 12 18 -7 20 12 3 22 -6 4 -8 3 -5 -3
3 -5 0 -10 -7 -10 -8 0 -12 6 -9 13 5 14 29 14 51 1 6 -5 12 -4 12 1 0 5 24 8
54 8 30 -1 52 -4 50 -8 -3 -4 5 -6 16 -5 11 1 20 4 20 7 0 4 20 6 44 6 24 -1
42 -4 39 -8 -2 -5 1 -8 7 -8 6 0 8 -6 4 -12 -4 -8 -3 -10 2 -5 5 5 9 14 9 20
0 14 104 18 122 5 6 -5 14 -5 18 2 11 18 24 1 19 -28 -3 -22 -2 -24 6 -10 6 9
17 15 25 12 18 -7 20 12 3 22 -6 4 -8 3 -5 -3 3 -5 0 -10 -7 -10 -8 0 -12 6
-9 13 5 14 29 14 51 1 6 -5 12 -4 12 1 0 5 24 8 54 8 30 -1 52 -4 50 -8 -3 -4
5 -6 16 -5 11 1 20 4 20 7 0 4 20 6 44 6 24 -1 42 -4 39 -8 -2 -5 1 -8 7 -8 6
0 8 -6 4 -13 -4 -7 -3 -9 2 -4 5 5 9 14 9 20 0 14 104 18 122 5 6 -5 14 -5 18
2 11 18 24 1 19 -28 -3 -22 -2 -24 6 -10 6 9 17 15 25 12 18 -7 20 12 3 22 -6
4 -8 3 -5 -3 3 -5 0 -10 -7 -10 -8 0 -12 6 -9 13 5 14 29 14 51 1 6 -5 12 -4
12 1 0 5 24 8 54 8 30 -1 52 -4 50 -8 -3 -4 5 -6 16 -5 11 1 20 4 20 7 0 4 20
6 44 6 24 -1 42 -4 39 -8 -2 -5 1 -8 7 -8 6 0 8 -6 4 -12 -4 -8 -3 -10 2 -5 5
5 9 14 9 20 0 14 104 18 122 5 6 -5 14 -5 18 2 11 18 24 1 19 -28 -3 -22 -2
-24 6 -10 6 9 17 15 25 12 18 -7 20 12 3 22 -6 4 -8 3 -5 -3 3 -5 0 -10 -7
-10 -8 0 -12 6 -9 13 5 14 29 14 51 1 6 -5 12 -4 12 1 0 5 24 8 54 8 30 -1 52
-4 50 -8 -3 -4 5 -6 16 -5 11 1 20 4 20 7 0 4 20 6 44 6 24 -1 42 -4 39 -8 -2
-5 1 -8 7 -8 6 0 8 -6 4 -13 -4 -7 -3 -9 2 -4 5 5 9 14 9 20 0 14 104 18 122
5 6 -5 14 -5 18 2 11 18 24 1 19 -28 -3 -22 -2 -24 6 -10 6 9 17 15 25 12 18
-7 20 12 3 22 -6 4 -8 3 -5 -3 3 -5 0 -10 -7 -10 -8 0 -12 6 -9 13 5 14 29 14
51 1 6 -5 12 -4 12 1 0 11 75 8 104 -4 15 -5 17 -4 11 6 -5 9 -4 11 3 6 15 -9
15 -12 -4 -30 -8 -9 -11 -16 -4 -16 6 0 16 11 22 25 12 27 23 31 33 15 4 -6
11 -7 17 -3 7 3 29 8 50 9 21 2 44 6 50 10 7 4 8 3 4 -4 -4 -7 -2 -12 3 -12 6
0 11 9 11 19 0 11 4 23 10 26 6 4 10 100 10 256 l0 249 38 0 c46 0 99 31 112
66 6 16 10 792 10 2145 0 2346 5 2175 -64 2204 -54 23 -3717 22 -3758 -1z
m182 -4970 c0 -8 -5 -12 -10 -9 -6 4 -8 11 -5 16 9 14 15 11 15 -7z"/>
<path d="M720 129 c-11 -6 -12 -9 -2 -9 7 0 20 -15 28 -32 9 -19 13 -24 11
-11 -3 12 0 24 7 27 6 2 3 5 -7 5 -10 1 -16 5 -12 10 8 14 -9 21 -25 10z"/>
<path d="M4310 130 c-9 -6 -10 -10 -3 -10 6 0 15 5 18 10 8 12 4 12 -15 0z"/>
<path d="M670 117 c0 -2 6 -10 14 -16 11 -9 16 -9 22 1 4 7 4 10 -1 6 -4 -4
-14 -3 -22 3 -7 6 -13 9 -13 6z"/>
<path d="M717 93 c-4 -3 -7 -11 -7 -17 0 -6 5 -5 12 2 6 6 9 14 7 17 -3 3 -9
2 -12 -2z"/>
<path d="M967 84 c3 -8 9 -14 15 -14 5 0 6 -5 3 -11 -4 -6 2 -5 14 3 11 7 23
19 26 27 4 11 2 11 -8 3 -8 -7 -17 -9 -21 -5 -13 13 -35 11 -29 -3z"/>
<path d="M1086 86 c3 -9 10 -16 16 -16 5 0 6 -6 2 -12 -4 -7 5 -2 19 11 26 24
39 17 15 -7 -20 -20 2 -13 24 8 24 22 38 19 18 -5 -7 -8 -8 -15 -4 -15 12 0
37 40 27 41 -39 6 -85 4 -89 -3 -3 -5 -12 -4 -20 3 -12 10 -13 9 -8 -5z"/>
<path d="M1259 95 c-6 -3 -5 -35 2 -35 5 0 9 5 9 10 0 6 4 10 10 10 5 0 7 -8
3 -17 -4 -12 1 -9 15 7 12 14 21 20 22 15 0 -6 -4 -15 -10 -21 -6 -6 -3 -10 9
-10 15 0 17 5 11 20 -5 14 -17 21 -39 21 -17 0 -31 1 -32 0z"/>
<path d="M1367 87 c2 -4 0 -14 -7 -22 -8 -9 -8 -15 0 -20 6 -4 9 -1 8 7 -2 8
9 13 32 13 23 0 34 -5 32 -13 -1 -8 2 -11 8 -7 8 5 8 11 0 20 -6 7 -7 15 -3
18 11 7 34 -19 25 -28 -4 -4 3 -2 15 6 13 7 25 20 28 28 4 11 2 11 -8 3 -8 -7
-17 -9 -21 -5 -10 11 -116 11 -109 0z m43 -9 c0 -4 -4 -8 -9 -8 -6 0 -12 4
-15 8 -3 5 1 9 9 9 8 0 15 -4 15 -9z"/>
<path d="M1566 86 c3 -9 10 -16 16 -16 5 0 6 -6 2 -12 -4 -7 5 -2 19 11 26 24
39 17 15 -7 -20 -20 2 -13 24 8 24 22 38 19 18 -5 -7 -8 -8 -15 -4 -15 12 0
37 40 27 41 -39 6 -85 4 -89 -3 -3 -5 -12 -4 -20 3 -12 10 -13 9 -8 -5z"/>
<path d="M1739 95 c-6 -3 -5 -35 2 -35 5 0 9 5 9 10 0 6 4 10 10 10 5 0 7 -8
3 -17 -4 -12 1 -9 15 7 12 14 21 20 22 15 0 -6 -4 -15 -10 -21 -6 -6 -3 -10 9
-10 15 0 17 5 11 20 -5 14 -17 21 -39 21 -17 0 -31 1 -32 0z"/>
<path d="M1847 87 c2 -4 0 -14 -7 -22 -8 -9 -8 -15 0 -20 6 -4 9 -1 8 7 -2 8
9 13 32 13 23 0 34 -5 32 -13 -1 -8 2 -11 8 -7 8 5 8 11 0 20 -6 7 -7 15 -3
18 11 7 34 -19 25 -28 -4 -4 3 -2 15 6 13 7 25 20 28 28 4 11 2 11 -8 3 -8 -7
-17 -9 -21 -5 -10 11 -116 11 -109 0z m43 -9 c0 -4 -4 -8 -9 -8 -6 0 -12 4
-15 8 -3 5 1 9 9 9 8 0 15 -4 15 -9z"/>
<path d="M2046 86 c3 -9 10 -16 16 -16 5 0 6 -6 2 -12 -4 -7 5 -2 19 11 26 24
39 17 15 -7 -20 -20 2 -13 24 8 24 22 38 19 18 -5 -7 -8 -8 -15 -4 -15 12 0
37 40 27 41 -39 6 -85 4 -89 -3 -3 -5 -12 -4 -20 3 -12 10 -13 9 -8 -5z"/>
<path d="M2219 95 c-6 -3 -5 -35 2 -35 5 0 9 5 9 10 0 6 4 10 10 10 5 0 7 -8
3 -17 -4 -12 1 -9 15 7 12 14 21 20 22 15 0 -6 -4 -15 -10 -21 -6 -6 -3 -10 9
-10 15 0 17 5 11 20 -5 14 -17 21 -39 21 -17 0 -31 1 -32 0z"/>
<path d="M2327 87 c2 -4 0 -14 -7 -22 -8 -9 -8 -15 0 -20 6 -4 9 -1 8 7 -2 8
9 13 32 13 23 0 34 -5 32 -13 -1 -8 2 -11 8 -7 8 5 8 11 0 20 -6 7 -7 15 -3
18 11 7 34 -19 25 -28 -4 -4 3 -2 15 6 13 7 25 20 28 28 4 11 2 11 -8 3 -8 -7
-17 -9 -21 -5 -10 11 -116 11 -109 0z m43 -9 c0 -4 -4 -8 -9 -8 -6 0 -12 4
-15 8 -3 5 1 9 9 9 8 0 15 -4 15 -9z"/>
<path d="M2526 86 c3 -9 10 -16 16 -16 5 0 6 -6 2 -12 -4 -7 5 -2 19 11 26 24
39 17 15 -7 -20 -20 2 -13 24 8 24 22 38 19 18 -5 -7 -8 -8 -15 -4 -15 12 0
37 40 27 41 -39 6 -85 4 -89 -3 -3 -5 -12 -4 -20 3 -12 10 -13 9 -8 -5z"/>
<path d="M2699 95 c-6 -3 -5 -35 2 -35 5 0 9 5 9 10 0 6 4 10 10 10 5 0 7 -8
3 -17 -4 -12 1 -9 15 7 12 14 21 20 22 15 0 -6 -4 -15 -10 -21 -6 -6 -3 -10 9
-10 15 0 17 5 11 20 -5 14 -17 21 -39 21 -17 0 -31 1 -32 0z"/>
<path d="M2807 87 c2 -4 0 -14 -7 -22 -8 -9 -8 -15 0 -20 6 -4 9 -1 8 7 -2 8
9 13 32 13 23 0 34 -5 32 -13 -1 -8 2 -11 8 -7 8 5 8 11 0 20 -6 7 -7 15 -3
18 11 7 34 -19 25 -28 -4 -4 3 -2 15 6 13 7 25 20 28 28 4 11 2 11 -8 3 -8 -7
-17 -9 -21 -5 -10 11 -116 11 -109 0z m43 -9 c0 -4 -4 -8 -9 -8 -6 0 -12 4
-15 8 -3 5 1 9 9 9 8 0 15 -4 15 -9z"/>
<path d="M3006 86 c3 -9 10 -16 16 -16 5 0 6 -6 2 -12 -4 -7 5 -2 19 11 26 24
39 17 15 -7 -20 -20 2 -13 24 8 24 22 38 19 18 -5 -7 -8 -8 -15 -4 -15 12 0
37 40 27 41 -39 6 -85 4 -89 -3 -3 -5 -12 -4 -20 3 -12 10 -13 9 -8 -5z"/>
<path d="M3179 95 c-6 -3 -5 -35 2 -35 5 0 9 5 9 10 0 6 4 10 10 10 5 0 7 -8
3 -17 -4 -12 1 -9 15 7 12 14 21 20 22 15 0 -6 -4 -15 -10 -21 -6 -6 -3 -10 9
-10 15 0 17 5 11 20 -5 14 -17 21 -39 21 -17 0 -31 1 -32 0z"/>
<path d="M3287 87 c2 -4 0 -14 -7 -22 -8 -9 -8 -15 0 -20 6 -4 9 -1 8 7 -2 8
9 13 32 13 23 0 34 -5 32 -13 -1 -8 2 -11 8 -7 8 5 8 11 0 20 -6 7 -7 15 -3
18 11 7 34 -19 25 -28 -4 -4 3 -2 15 6 13 7 25 20 28 28 4 11 2 11 -8 3 -8 -7
-17 -9 -21 -5 -10 11 -116 11 -109 0z m43 -9 c0 -4 -4 -8 -9 -8 -6 0 -12 4
-15 8 -3 5 1 9 9 9 8 0 15 -4 15 -9z"/>
<path d="M3486 86 c3 -9 10 -16 16 -16 5 0 6 -6 2 -12 -4 -7 5 -2 19 11 26 24
39 17 15 -7 -20 -20 2 -13 24 8 24 22 38 19 18 -5 -7 -8 -8 -15 -4 -15 12 0
37 40 27 41 -39 6 -85 4 -89 -3 -3 -5 -12 -4 -20 3 -12 10 -13 9 -8 -5z"/>
<path d="M3659 95 c-6 -3 -5 -35 2 -35 5 0 9 5 9 10 0 6 4 10 10 10 5 0 7 -8
3 -17 -4 -12 1 -9 15 7 12 14 21 20 22 15 0 -6 -4 -15 -10 -21 -6 -6 -3 -10 9
-10 15 0 17 5 11 20 -5 14 -17 21 -39 21 -17 0 -31 1 -32 0z"/>
<path d="M3767 87 c2 -4 0 -14 -7 -22 -8 -9 -8 -15 0 -20 6 -4 9 -1 8 7 -2 8
9 13 32 13 23 0 34 -5 32 -13 -1 -8 2 -11 8 -7 8 5 8 11 0 20 -6 7 -7 15 -3
18 11 7 34 -19 25 -28 -4 -4 3 -2 15 6 13 7 25 20 28 28 4 11 2 11 -8 3 -8 -7
-17 -9 -21 -5 -10 11 -116 11 -109 0z m43 -9 c0 -4 -4 -8 -9 -8 -6 0 -12 4
-15 8 -3 5 1 9 9 9 8 0 15 -4 15 -9z"/>
<path d="M3966 86 c3 -9 10 -16 16 -16 5 0 6 -6 2 -12 -4 -7 5 -2 19 11 26 24
39 17 15 -7 -20 -20 2 -13 24 8 24 22 38 19 18 -5 -7 -8 -8 -15 -4 -15 12 0
37 40 27 41 -39 6 -85 4 -89 -3 -3 -5 -12 -4 -20 3 -12 10 -13 9 -8 -5z"/>
<path d="M4139 98 c-6 -25 -6 -38 1 -38 12 0 20 29 10 35 -6 4 -10 5 -11 3z"/>
<path d="M4170 79 c-7 -11 -9 -23 -7 -26 3 -2 8 5 12 16 3 12 11 18 17 15 7
-4 8 -2 4 4 -10 16 -14 15 -26 -9z"/>
<path d="M4213 84 c0 -7 5 -10 10 -7 6 4 8 -1 4 -11 -6 -15 -5 -15 17 1 27 20
26 25 -7 28 -14 2 -24 -2 -24 -11z"/>
<path d="M1222 74 c-7 -8 -8 -14 -3 -14 10 0 25 19 20 25 -2 1 -10 -3 -17 -11z"/>
<path d="M1702 74 c-7 -8 -8 -14 -3 -14 10 0 25 19 20 25 -2 1 -10 -3 -17 -11z"/>
<path d="M2182 74 c-7 -8 -8 -14 -3 -14 10 0 25 19 20 25 -2 1 -10 -3 -17 -11z"/>
<path d="M2662 74 c-7 -8 -8 -14 -3 -14 10 0 25 19 20 25 -2 1 -10 -3 -17 -11z"/>
<path d="M3142 74 c-7 -8 -8 -14 -3 -14 10 0 25 19 20 25 -2 1 -10 -3 -17 -11z"/>
<path d="M3622 74 c-7 -8 -8 -14 -3 -14 10 0 25 19 20 25 -2 1 -10 -3 -17 -11z"/>
<path d="M4276 75 c-11 -8 -15 -15 -9 -15 7 0 15 5 18 10 4 6 11 8 16 5 5 -4
9 -1 9 4 0 15 -11 13 -34 -4z"/>
<path d="M4186 62 c-3 -5 1 -9 9 -9 8 0 12 4 9 9 -3 4 -7 8 -9 8 -2 0 -6 -4
-9 -8z"/>
<path d="M1050 56 c0 -2 8 -10 18 -17 15 -13 16 -12 3 4 -13 16 -21 21 -21 13z"/>
<path d="M1530 56 c0 -2 8 -10 18 -17 15 -13 16 -12 3 4 -13 16 -21 21 -21 13z"/>
<path d="M2010 56 c0 -2 8 -10 18 -17 15 -13 16 -12 3 4 -13 16 -21 21 -21 13z"/>
<path d="M2490 56 c0 -2 8 -10 18 -17 15 -13 16 -12 3 4 -13 16 -21 21 -21 13z"/>
<path d="M2970 56 c0 -2 8 -10 18 -17 15 -13 16 -12 3 4 -13 16 -21 21 -21 13z"/>
<path d="M3450 56 c0 -2 8 -10 18 -17 15 -13 16 -12 3 4 -13 16 -21 21 -21 13z"/>
<path d="M3930 56 c0 -2 8 -10 18 -17 15 -13 16 -12 3 4 -13 16 -21 21 -21 13z"/>
<path d="M4116 38 c3 -5 10 -6 15 -3 13 9 11 12 -6 12 -8 0 -12 -4 -9 -9z"/>
</g>
</svg>
